<svg width="147" height="47" viewBox="0 0 147 47" fill="none" xmlns="http://www.w3.org/2000/svg">
<path d="M14.918 36V25.704L16.25 29.232L5.16202 10.8H11.354L19.85 24.948H16.286L24.818 10.8H30.542L19.454 29.232L20.75 25.704V36H14.918ZM39.6576 36.288C37.5936 36.288 35.7576 35.856 34.1496 34.992C32.5656 34.128 31.3056 32.952 30.3696 31.464C29.4576 29.952 29.0016 28.236 29.0016 26.316C29.0016 24.372 29.4576 22.656 30.3696 21.168C31.3056 19.656 32.5656 18.48 34.1496 17.64C35.7576 16.776 37.5936 16.344 39.6576 16.344C41.6976 16.344 43.5216 16.776 45.1296 17.64C46.7376 18.48 47.9976 19.644 48.9096 21.132C49.8216 22.62 50.2776 24.348 50.2776 26.316C50.2776 28.236 49.8216 29.952 48.9096 31.464C47.9976 32.952 46.7376 34.128 45.1296 34.992C43.5216 35.856 41.6976 36.288 39.6576 36.288ZM39.6576 31.68C40.5936 31.68 41.4336 31.464 42.1776 31.032C42.9216 30.6 43.5096 29.988 43.9416 29.196C44.3736 28.38 44.5896 27.42 44.5896 26.316C44.5896 25.188 44.3736 24.228 43.9416 23.436C43.5096 22.644 42.9216 22.032 42.1776 21.6C41.4336 21.168 40.5936 20.952 39.6576 20.952C38.7216 20.952 37.8816 21.168 37.1376 21.6C36.3936 22.032 35.7936 22.644 35.3376 23.436C34.9056 24.228 34.6896 25.188 34.6896 26.316C34.6896 27.42 34.9056 28.38 35.3376 29.196C35.7936 29.988 36.3936 30.6 37.1376 31.032C37.8816 31.464 38.7216 31.68 39.6576 31.68ZM62.2035 36.288C60.5955 36.288 59.1555 35.976 57.8835 35.352C56.6355 34.728 55.6635 33.78 54.9675 32.508C54.2715 31.212 53.9235 29.568 53.9235 27.576V16.632H59.5395V26.748C59.5395 28.356 59.8755 29.544 60.5475 30.312C61.2435 31.056 62.2155 31.428 63.4635 31.428C64.3275 31.428 65.0955 31.248 65.7675 30.888C66.4395 30.504 66.9675 29.928 67.3515 29.16C67.7355 28.368 67.9275 27.384 67.9275 26.208V16.632H73.5435V36H68.2155V30.672L69.1875 32.22C68.5395 33.564 67.5795 34.584 66.3075 35.28C65.0595 35.952 63.6915 36.288 62.2035 36.288ZM82.0771 36V15.552H74.0131V10.8H95.9731V15.552H87.9091V36H82.0771ZM105.962 36.288C103.898 36.288 102.062 35.856 100.454 34.992C98.8703 34.128 97.6103 32.952 96.6743 31.464C95.7623 29.952 95.3063 28.236 95.3063 26.316C95.3063 24.372 95.7623 22.656 96.6743 21.168C97.6103 19.656 98.8703 18.48 100.454 17.64C102.062 16.776 103.898 16.344 105.962 16.344C108.002 16.344 109.826 16.776 111.434 17.64C113.042 18.48 114.302 19.644 115.214 21.132C116.126 22.62 116.582 24.348 116.582 26.316C116.582 28.236 116.126 29.952 115.214 31.464C114.302 32.952 113.042 34.128 111.434 34.992C109.826 35.856 108.002 36.288 105.962 36.288ZM105.962 31.68C106.898 31.68 107.738 31.464 108.482 31.032C109.226 30.6 109.814 29.988 110.246 29.196C110.678 28.38 110.894 27.42 110.894 26.316C110.894 25.188 110.678 24.228 110.246 23.436C109.814 22.644 109.226 22.032 108.482 21.6C107.738 21.168 106.898 20.952 105.962 20.952C105.026 20.952 104.186 21.168 103.442 21.6C102.698 22.032 102.098 22.644 101.642 23.436C101.21 24.228 100.994 25.188 100.994 26.316C100.994 27.42 101.21 28.38 101.642 29.196C102.098 29.988 102.698 30.6 103.442 31.032C104.186 31.464 105.026 31.68 105.962 31.68ZM129.552 36.288C127.488 36.288 125.652 35.856 124.044 34.992C122.46 34.128 121.2 32.952 120.264 31.464C119.352 29.952 118.896 28.236 118.896 26.316C118.896 24.372 119.352 22.656 120.264 21.168C121.2 19.656 122.46 18.48 124.044 17.64C125.652 16.776 127.488 16.344 129.552 16.344C131.592 16.344 133.416 16.776 135.024 17.64C136.632 18.48 137.892 19.644 138.804 21.132C139.716 22.62 140.172 24.348 140.172 26.316C140.172 28.236 139.716 29.952 138.804 31.464C137.892 32.952 136.632 34.128 135.024 34.992C133.416 35.856 131.592 36.288 129.552 36.288ZM129.552 31.68C130.488 31.68 131.328 31.464 132.072 31.032C132.816 30.6 133.404 29.988 133.836 29.196C134.268 28.38 134.484 27.42 134.484 26.316C134.484 25.188 134.268 24.228 133.836 23.436C133.404 22.644 132.816 22.032 132.072 21.6C131.328 21.168 130.488 20.952 129.552 20.952C128.616 20.952 127.776 21.168 127.032 21.6C126.288 22.032 125.688 22.644 125.232 23.436C124.8 24.228 124.584 25.188 124.584 26.316C124.584 27.42 124.8 28.38 125.232 29.196C125.688 29.988 126.288 30.6 127.032 31.032C127.776 31.464 128.616 31.68 129.552 31.68Z" fill="black"/>
</svg>
